<mxfile host="app.diagrams.net" modified="2023-10-17T12:05:42.763Z" agent="Mozilla/5.0 (Windows NT 10.0; Win64; x64) AppleWebKit/537.36 (KHTML, like Gecko) Chrome/117.0.0.0 Safari/537.36" etag="7ue1E9iv1Q9CnBdT3QJx" version="22.0.4" type="github">
  <diagram name="Page-1" id="-FKkgGoEUXWcKMXo3UV1">
    <mxGraphModel dx="1114" dy="610" grid="1" gridSize="10" guides="1" tooltips="1" connect="1" arrows="1" fold="1" page="1" pageScale="1" pageWidth="850" pageHeight="1100" math="0" shadow="0">
      <root>
        <mxCell id="0" />
        <mxCell id="1" parent="0" />
        <mxCell id="gxe5l9utPmxhr4n0kvoo-3" value="" style="edgeStyle=orthogonalEdgeStyle;rounded=0;orthogonalLoop=1;jettySize=auto;html=1;" parent="1" source="gxe5l9utPmxhr4n0kvoo-1" target="gxe5l9utPmxhr4n0kvoo-2" edge="1">
          <mxGeometry relative="1" as="geometry" />
        </mxCell>
        <mxCell id="gxe5l9utPmxhr4n0kvoo-1" value="start" style="rounded=1;whiteSpace=wrap;html=1;" parent="1" vertex="1">
          <mxGeometry x="150" y="10" width="120" height="60" as="geometry" />
        </mxCell>
        <mxCell id="gxe5l9utPmxhr4n0kvoo-5" value="" style="edgeStyle=orthogonalEdgeStyle;rounded=0;orthogonalLoop=1;jettySize=auto;html=1;" parent="1" source="gxe5l9utPmxhr4n0kvoo-2" target="gxe5l9utPmxhr4n0kvoo-4" edge="1">
          <mxGeometry relative="1" as="geometry" />
        </mxCell>
        <mxCell id="gxe5l9utPmxhr4n0kvoo-2" value="n,m,&lt;br&gt;count=0" style="shape=parallelogram;perimeter=parallelogramPerimeter;whiteSpace=wrap;html=1;fixedSize=1;" parent="1" vertex="1">
          <mxGeometry x="150" y="110" width="120" height="60" as="geometry" />
        </mxCell>
        <mxCell id="gxe5l9utPmxhr4n0kvoo-12" value="" style="edgeStyle=orthogonalEdgeStyle;rounded=0;orthogonalLoop=1;jettySize=auto;html=1;" parent="1" source="gxe5l9utPmxhr4n0kvoo-4" target="gxe5l9utPmxhr4n0kvoo-9" edge="1">
          <mxGeometry relative="1" as="geometry" />
        </mxCell>
        <mxCell id="gxe5l9utPmxhr4n0kvoo-14" value="true" style="edgeLabel;html=1;align=center;verticalAlign=middle;resizable=0;points=[];" parent="gxe5l9utPmxhr4n0kvoo-12" vertex="1" connectable="0">
          <mxGeometry x="-0.36" y="-2" relative="1" as="geometry">
            <mxPoint as="offset" />
          </mxGeometry>
        </mxCell>
        <mxCell id="gxe5l9utPmxhr4n0kvoo-23" value="" style="edgeStyle=orthogonalEdgeStyle;rounded=0;orthogonalLoop=1;jettySize=auto;html=1;" parent="1" source="gxe5l9utPmxhr4n0kvoo-4" target="gxe5l9utPmxhr4n0kvoo-22" edge="1">
          <mxGeometry relative="1" as="geometry" />
        </mxCell>
        <mxCell id="gxe5l9utPmxhr4n0kvoo-24" value="false" style="edgeLabel;html=1;align=center;verticalAlign=middle;resizable=0;points=[];" parent="gxe5l9utPmxhr4n0kvoo-23" vertex="1" connectable="0">
          <mxGeometry x="-0.52" y="2" relative="1" as="geometry">
            <mxPoint as="offset" />
          </mxGeometry>
        </mxCell>
        <mxCell id="gxe5l9utPmxhr4n0kvoo-4" value="int (i=n; i&amp;lt;=m; i++)" style="shape=hexagon;perimeter=hexagonPerimeter2;whiteSpace=wrap;html=1;fixedSize=1;" parent="1" vertex="1">
          <mxGeometry x="150" y="220" width="120" height="80" as="geometry" />
        </mxCell>
        <mxCell id="gxe5l9utPmxhr4n0kvoo-13" value="" style="edgeStyle=orthogonalEdgeStyle;rounded=0;orthogonalLoop=1;jettySize=auto;html=1;" parent="1" source="gxe5l9utPmxhr4n0kvoo-9" target="gxe5l9utPmxhr4n0kvoo-10" edge="1">
          <mxGeometry relative="1" as="geometry" />
        </mxCell>
        <mxCell id="gxe5l9utPmxhr4n0kvoo-15" value="true" style="edgeLabel;html=1;align=center;verticalAlign=middle;resizable=0;points=[];" parent="gxe5l9utPmxhr4n0kvoo-13" vertex="1" connectable="0">
          <mxGeometry x="0.0571" y="-2" relative="1" as="geometry">
            <mxPoint as="offset" />
          </mxGeometry>
        </mxCell>
        <mxCell id="gxe5l9utPmxhr4n0kvoo-20" value="" style="edgeStyle=orthogonalEdgeStyle;rounded=0;orthogonalLoop=1;jettySize=auto;html=1;" parent="1" source="gxe5l9utPmxhr4n0kvoo-9" edge="1">
          <mxGeometry relative="1" as="geometry">
            <mxPoint x="375" y="180" as="targetPoint" />
          </mxGeometry>
        </mxCell>
        <mxCell id="gxe5l9utPmxhr4n0kvoo-21" value="False" style="edgeLabel;html=1;align=center;verticalAlign=middle;resizable=0;points=[];" parent="gxe5l9utPmxhr4n0kvoo-20" vertex="1" connectable="0">
          <mxGeometry x="-0.0125" relative="1" as="geometry">
            <mxPoint as="offset" />
          </mxGeometry>
        </mxCell>
        <mxCell id="gxe5l9utPmxhr4n0kvoo-9" value="i%2==1" style="rhombus;whiteSpace=wrap;html=1;" parent="1" vertex="1">
          <mxGeometry x="320" y="220" width="110" height="95" as="geometry" />
        </mxCell>
        <mxCell id="gxe5l9utPmxhr4n0kvoo-16" style="edgeStyle=orthogonalEdgeStyle;rounded=0;orthogonalLoop=1;jettySize=auto;html=1;" parent="1" source="gxe5l9utPmxhr4n0kvoo-10" edge="1">
          <mxGeometry relative="1" as="geometry">
            <mxPoint x="210" y="190" as="targetPoint" />
            <Array as="points">
              <mxPoint x="560" y="180" />
              <mxPoint x="211" y="180" />
            </Array>
          </mxGeometry>
        </mxCell>
        <mxCell id="gxe5l9utPmxhr4n0kvoo-10" value="count++" style="rounded=0;whiteSpace=wrap;html=1;" parent="1" vertex="1">
          <mxGeometry x="500" y="230" width="120" height="60" as="geometry" />
        </mxCell>
        <mxCell id="gxe5l9utPmxhr4n0kvoo-22" value="count" style="shape=document;whiteSpace=wrap;html=1;boundedLbl=1;" parent="1" vertex="1">
          <mxGeometry x="150" y="350" width="120" height="80" as="geometry" />
        </mxCell>
        <mxCell id="gxe5l9utPmxhr4n0kvoo-27" value="end" style="rounded=1;whiteSpace=wrap;html=1;" parent="1" vertex="1">
          <mxGeometry x="340" y="390" width="120" height="60" as="geometry" />
        </mxCell>
        <mxCell id="gxe5l9utPmxhr4n0kvoo-28" style="edgeStyle=orthogonalEdgeStyle;rounded=0;orthogonalLoop=1;jettySize=auto;html=1;entryX=-0.017;entryY=0.367;entryDx=0;entryDy=0;entryPerimeter=0;" parent="1" source="gxe5l9utPmxhr4n0kvoo-22" target="gxe5l9utPmxhr4n0kvoo-27" edge="1">
          <mxGeometry relative="1" as="geometry" />
        </mxCell>
        <mxCell id="gxe5l9utPmxhr4n0kvoo-29" value="&lt;h2&gt;&lt;font style=&quot;font-size: 14px;&quot;&gt;1.Verilmiş n və m (n&amp;lt;m) ədədləri arasında neçə tək ədəd olduğunu tapın.&lt;/font&gt;&lt;/h2&gt;" style="rounded=0;whiteSpace=wrap;html=1;" parent="1" vertex="1">
          <mxGeometry x="400" y="20" width="420" height="50" as="geometry" />
        </mxCell>
      </root>
    </mxGraphModel>
  </diagram>
</mxfile>
